<mxfile host="app.diagrams.net" modified="2023-12-31T17:21:54.739Z" agent="Mozilla/5.0 (Macintosh; Intel Mac OS X 10_15_7) AppleWebKit/537.36 (KHTML, like Gecko) Chrome/120.0.0.0 Safari/537.36" etag="bNY2I_w1V78zf1JDGSvX" version="22.1.16" type="github">
  <diagram name="Page-1" id="Pqbvf7xFj44EtJfHZ5uy">
    <mxGraphModel dx="2868" dy="1622" grid="1" gridSize="10" guides="1" tooltips="1" connect="1" arrows="1" fold="1" page="1" pageScale="1" pageWidth="980" pageHeight="1390" math="0" shadow="0">
      <root>
        <mxCell id="0" />
        <mxCell id="1" parent="0" />
        <mxCell id="N5X5lAVMH0Gaif1zDExc-6" value="" style="rounded=0;whiteSpace=wrap;html=1;fontSize=16;" parent="1" vertex="1">
          <mxGeometry x="40" y="40" width="440" height="200" as="geometry" />
        </mxCell>
        <mxCell id="N5X5lAVMH0Gaif1zDExc-8" value="&lt;h1&gt;Call Sentiment Analysis&lt;/h1&gt;&lt;div&gt;This application is designed for a call centre for companies to analyse call recordings and assess the performance of their employees. The call analysis will be done by using artificial intelligence.&lt;/div&gt;" style="text;html=1;strokeColor=none;fillColor=none;spacing=5;spacingTop=-20;whiteSpace=wrap;overflow=hidden;rounded=0;fontSize=16;" parent="1" vertex="1">
          <mxGeometry x="60" y="60" width="400" height="160" as="geometry" />
        </mxCell>
        <mxCell id="N5X5lAVMH0Gaif1zDExc-9" value="Roles" style="rounded=0;whiteSpace=wrap;html=1;fontSize=16;" parent="1" vertex="1">
          <mxGeometry x="180" y="280" width="120" height="60" as="geometry" />
        </mxCell>
        <mxCell id="N5X5lAVMH0Gaif1zDExc-10" value="" style="endArrow=none;html=1;rounded=0;fontSize=12;startSize=8;endSize=8;curved=1;" parent="1" edge="1">
          <mxGeometry width="50" height="50" relative="1" as="geometry">
            <mxPoint x="240" y="380" as="sourcePoint" />
            <mxPoint x="239.88" y="340" as="targetPoint" />
          </mxGeometry>
        </mxCell>
        <mxCell id="N5X5lAVMH0Gaif1zDExc-11" value="" style="endArrow=none;html=1;rounded=0;fontSize=12;startSize=8;endSize=8;curved=1;" parent="1" edge="1">
          <mxGeometry width="50" height="50" relative="1" as="geometry">
            <mxPoint x="100" y="380" as="sourcePoint" />
            <mxPoint x="380" y="380" as="targetPoint" />
          </mxGeometry>
        </mxCell>
        <mxCell id="N5X5lAVMH0Gaif1zDExc-12" value="" style="endArrow=none;html=1;rounded=0;fontSize=12;startSize=8;endSize=8;curved=1;" parent="1" edge="1">
          <mxGeometry width="50" height="50" relative="1" as="geometry">
            <mxPoint x="380" y="400" as="sourcePoint" />
            <mxPoint x="380" y="380" as="targetPoint" />
          </mxGeometry>
        </mxCell>
        <mxCell id="N5X5lAVMH0Gaif1zDExc-13" value="" style="endArrow=none;html=1;rounded=0;fontSize=12;startSize=8;endSize=8;curved=1;" parent="1" edge="1">
          <mxGeometry width="50" height="50" relative="1" as="geometry">
            <mxPoint x="100" y="400" as="sourcePoint" />
            <mxPoint x="100" y="380" as="targetPoint" />
          </mxGeometry>
        </mxCell>
        <mxCell id="N5X5lAVMH0Gaif1zDExc-14" value="Admin" style="rounded=0;whiteSpace=wrap;html=1;fontSize=16;" parent="1" vertex="1">
          <mxGeometry x="40" y="400" width="120" height="40" as="geometry" />
        </mxCell>
        <mxCell id="N5X5lAVMH0Gaif1zDExc-15" value="Employee" style="rounded=0;whiteSpace=wrap;html=1;fontSize=16;" parent="1" vertex="1">
          <mxGeometry x="320" y="400" width="120" height="40" as="geometry" />
        </mxCell>
        <mxCell id="rwuKlkwPPeW12wahdAE0-6" value="" style="curved=1;endArrow=classic;html=1;rounded=0;fontSize=12;startSize=8;endSize=8;exitX=0.5;exitY=1;exitDx=0;exitDy=0;entryX=-0.006;entryY=0.147;entryDx=0;entryDy=0;entryPerimeter=0;" edge="1" parent="1" source="N5X5lAVMH0Gaif1zDExc-14" target="rwuKlkwPPeW12wahdAE0-7">
          <mxGeometry width="50" height="50" relative="1" as="geometry">
            <mxPoint x="80" y="450" as="sourcePoint" />
            <mxPoint x="660" y="290" as="targetPoint" />
            <Array as="points">
              <mxPoint x="260" y="620" />
              <mxPoint x="370" y="670" />
              <mxPoint x="490" y="630" />
              <mxPoint x="520" y="510" />
              <mxPoint x="480" y="320" />
            </Array>
          </mxGeometry>
        </mxCell>
        <mxCell id="rwuKlkwPPeW12wahdAE0-7" value="" style="rounded=0;whiteSpace=wrap;html=1;fontSize=16;" vertex="1" parent="1">
          <mxGeometry x="600" y="240" width="360" height="310" as="geometry" />
        </mxCell>
        <mxCell id="rwuKlkwPPeW12wahdAE0-9" value="&lt;h1&gt;Admin&lt;/h1&gt;&lt;p&gt;Admin is an entity mostly the senior person in a call center company who can perform following operations:&lt;/p&gt;&lt;p&gt;&lt;/p&gt;&lt;ol&gt;&lt;li&gt;See all call recordings&lt;/li&gt;&lt;li&gt;See all Employees&lt;/li&gt;&lt;li&gt;Add new Employees&lt;/li&gt;&lt;li&gt;See Employee call recordings&lt;/li&gt;&lt;li&gt;See Employee performance&lt;/li&gt;&lt;li&gt;See day Data.&lt;/li&gt;&lt;/ol&gt;&lt;p&gt;&lt;/p&gt;" style="text;html=1;strokeColor=none;fillColor=none;spacing=5;spacingTop=-20;whiteSpace=wrap;overflow=hidden;rounded=0;fontSize=16;" vertex="1" parent="1">
          <mxGeometry x="630" y="260" width="320" height="290" as="geometry" />
        </mxCell>
        <mxCell id="rwuKlkwPPeW12wahdAE0-13" value="" style="rounded=0;whiteSpace=wrap;html=1;fontSize=16;" vertex="1" parent="1">
          <mxGeometry x="600" y="720" width="360" height="260" as="geometry" />
        </mxCell>
        <mxCell id="rwuKlkwPPeW12wahdAE0-17" value="" style="curved=1;endArrow=classic;html=1;rounded=0;fontSize=12;startSize=8;endSize=8;exitX=0.5;exitY=1;exitDx=0;exitDy=0;entryX=0;entryY=0.25;entryDx=0;entryDy=0;" edge="1" parent="1" source="N5X5lAVMH0Gaif1zDExc-15" target="rwuKlkwPPeW12wahdAE0-13">
          <mxGeometry width="50" height="50" relative="1" as="geometry">
            <mxPoint x="330" y="460" as="sourcePoint" />
            <mxPoint x="627.1199999999999" y="804.04" as="targetPoint" />
            <Array as="points">
              <mxPoint x="350" y="670" />
              <mxPoint x="470" y="840" />
            </Array>
          </mxGeometry>
        </mxCell>
        <mxCell id="rwuKlkwPPeW12wahdAE0-19" value="&lt;h1&gt;Employee&lt;/h1&gt;&lt;p&gt;Employee is an &lt;b&gt;Entity&lt;/b&gt; who is actually a employee of call centre where he can perform following tasks:&lt;/p&gt;&lt;p&gt;&lt;/p&gt;&lt;ol&gt;&lt;li&gt;Add call recording.&lt;/li&gt;&lt;li&gt;See Performance&lt;/li&gt;&lt;li&gt;See Report&lt;/li&gt;&lt;li&gt;See Call Recordings&lt;/li&gt;&lt;/ol&gt;&lt;p&gt;&lt;/p&gt;" style="text;html=1;strokeColor=none;fillColor=none;spacing=5;spacingTop=-20;whiteSpace=wrap;overflow=hidden;rounded=0;fontSize=16;" vertex="1" parent="1">
          <mxGeometry x="635" y="732.5" width="290" height="235" as="geometry" />
        </mxCell>
      </root>
    </mxGraphModel>
  </diagram>
</mxfile>
